<?xml version="1.0" standalone="no"?>
<!DOCTYPE svg PUBLIC "-//W3C//DTD SVG 20010904//EN"
 "http://www.w3.org/TR/2001/REC-SVG-20010904/DTD/svg10.dtd">
<svg version="1.0" xmlns="http://www.w3.org/2000/svg"
 width="444.000000pt" height="444.000000pt" viewBox="0 0 444.000000 444.000000"
 preserveAspectRatio="xMidYMid meet">
<metadata>
Created by potrace 1.11, written by Peter Selinger 2001-2013
</metadata>
<g transform="translate(0.000000,444.000000) scale(0.100000,-0.100000)"
fill="#000000" stroke="none">
<path d="M270 4165 l-64 -65 67 0 67 0 0 65 c0 36 -1 65 -3 65 -1 0 -32 -29
-67 -65z"/>
<path d="M4100 4160 l0 -60 62 0 62 0 -59 60 c-33 33 -61 60 -62 60 -2 0 -3
-27 -3 -60z"/>
<path d="M1532 3927 l-172 -172 0 -347 0 -346 165 -159 c91 -87 169 -158 175
-158 5 0 86 76 180 169 l170 170 0 340 0 341 -168 168 c-92 92 -169 167 -172
167 -3 0 -83 -78 -178 -173z"/>
<path d="M2557 3932 l-167 -167 0 -345 0 -345 170 -170 170 -170 170 170 170
170 0 345 0 345 -168 168 c-92 92 -169 167 -172 167 -3 0 -81 -75 -173 -168z"/>
<path d="M512 2902 l-172 -167 0 -340 0 -340 170 -170 170 -170 170 170 170
170 0 340 0 340 -167 167 -168 166 -173 -166z"/>
<path d="M3582 2902 l-172 -167 0 -340 0 -340 170 -170 170 -170 173 170 174
170 2 335 1 335 -172 172 -173 171 -173 -166z"/>
<path d="M1526 1880 l-506 -511 0 -342 0 -342 173 -173 172 -172 170 0 169 0
172 170 171 170 179 0 178 0 170 -170 170 -170 165 0 165 0 168 168 169 168
-1 349 0 350 -508 508 -507 507 -181 0 -182 0 -506 -510z"/>
<path d="M165 170 c93 -94 172 -170 175 -170 3 0 -72 76 -165 170 -93 94 -172
170 -175 170 -3 0 72 -76 165 -170z"/>
<path d="M270 275 c35 -36 66 -65 67 -65 2 0 3 29 3 65 l0 65 -67 0 -67 0 64
-65z"/>
<path d="M4100 278 l0 -62 60 59 c33 33 60 61 60 62 0 2 -27 3 -60 3 l-60 0 0
-62z"/>
</g>
</svg>
